<svg width="62" height="63" viewBox="0 0 62 63" fill="none" xmlns="http://www.w3.org/2000/svg">
<g filter="url(#filter0_d_1011_79405)">
<path d="M7 26.9424C7 13.6875 17.7452 2.94238 31 2.94238C44.2548 2.94238 55 13.6875 55 26.9424C55 40.1972 44.2548 50.9424 31 50.9424C17.7452 50.9424 7 40.1972 7 26.9424Z" fill="white"/>
<path fill-rule="evenodd" clip-rule="evenodd" d="M27.7966 17.2333C27.406 17.6238 27.406 18.257 27.7966 18.6475L36.0893 26.9403L32.7423 30.2802C32.3518 30.6707 32.3518 31.3039 32.7423 31.6944C33.1328 32.0849 33.766 32.0849 34.1565 31.6944L38.2107 27.6474C38.6012 27.2569 38.6012 26.6237 38.2107 26.2332L29.2108 17.2333C28.8203 16.8428 28.1871 16.8428 27.7966 17.2333Z" fill="black"/>
<path fill-rule="evenodd" clip-rule="evenodd" d="M30.6194 33.8236C30.2288 33.4331 29.5957 33.4331 29.2052 33.8236L27.7909 35.2379C27.4004 35.6284 27.4004 36.2615 27.7909 36.6521C28.1815 37.0426 28.8146 37.0426 29.2052 36.6521L30.6194 35.2379C31.0099 34.8473 31.0099 34.2142 30.6194 33.8236Z" fill="black"/>
</g>
<defs>
<filter id="filter0_d_1011_79405" x="0" y="0.942383" width="62" height="62" filterUnits="userSpaceOnUse" color-interpolation-filters="sRGB">
<feFlood flood-opacity="0" result="BackgroundImageFix"/>
<feColorMatrix in="SourceAlpha" type="matrix" values="0 0 0 0 0 0 0 0 0 0 0 0 0 0 0 0 0 0 127 0" result="hardAlpha"/>
<feOffset dy="5"/>
<feGaussianBlur stdDeviation="3.5"/>
<feColorMatrix type="matrix" values="0 0 0 0 0 0 0 0 0 0 0 0 0 0 0 0 0 0 0.16 0"/>
<feBlend mode="normal" in2="BackgroundImageFix" result="effect1_dropShadow_1011_79405"/>
<feBlend mode="normal" in="SourceGraphic" in2="effect1_dropShadow_1011_79405" result="shape"/>
</filter>
</defs>
</svg>
