<svg width="19" height="18" viewBox="0 0 19 18" fill="none" xmlns="http://www.w3.org/2000/svg">
<path fill-rule="evenodd" clip-rule="evenodd" d="M17.7071 0.297706C18.0977 0.68823 18.1049 1.31414 17.7233 1.69572L7.35978 12.0593C6.9782 12.4409 6.35229 12.4336 5.96177 12.0431C5.57124 11.6526 5.56399 11.0266 5.94557 10.6451L16.3091 0.281503C16.6907 -0.100073 17.3166 -0.0928188 17.7071 0.297706Z" fill="white"/>
<path fill-rule="evenodd" clip-rule="evenodd" d="M3.82843 14.1679C4.21895 14.5584 4.21895 15.1916 3.82843 15.5821L1.70711 17.7034C1.31658 18.094 0.683417 18.094 0.292893 17.7034C-0.0976311 17.3129 -0.0976311 16.6797 0.292893 16.2892L2.41421 14.1679C2.80474 13.7774 3.4379 13.7774 3.82843 14.1679Z" fill="white"/>
<path fill-rule="evenodd" clip-rule="evenodd" d="M0.296759 0.297706C-0.0937656 0.68823 -0.101018 1.31414 0.280558 1.69572L10.6441 12.0593C11.0257 12.4409 11.6516 12.4336 12.0421 12.0431C12.4327 11.6526 12.4399 11.0266 12.0583 10.6451L1.69477 0.281503C1.31319 -0.100073 0.687283 -0.0928188 0.296759 0.297706Z" fill="white"/>
<path fill-rule="evenodd" clip-rule="evenodd" d="M14.1755 14.1679C13.785 14.5584 13.785 15.1916 14.1755 15.5821L16.2968 17.7034C16.6873 18.094 17.3205 18.094 17.711 17.7034C18.1015 17.3129 18.1015 16.6797 17.711 16.2892L15.5897 14.1679C15.1992 13.7774 14.566 13.7774 14.1755 14.1679Z" fill="white"/>
</svg>
